<?xml version="1.0" standalone="no"?>
<!DOCTYPE svg PUBLIC "-//W3C//DTD SVG 20010904//EN"
 "http://www.w3.org/TR/2001/REC-SVG-20010904/DTD/svg10.dtd">
<svg version="1.0" xmlns="http://www.w3.org/2000/svg"
 width="500.000000pt" height="405.000000pt" viewBox="0 0 500.000000 405.000000"
 preserveAspectRatio="xMidYMid meet">

<g transform="translate(0.000000,405.000000) scale(0.100000,-0.100000)"
fill="#000000" stroke="none">
<path d="M2590 4044 c-246 -16 -465 -51 -695 -109 -402 -101 -691 -252 -1028
-536 -285 -240 -385 -307 -527 -355 l-55 -18 62 -7 c114 -14 163 -50 170 -126
11 -109 -77 -263 -312 -548 -94 -114 -176 -216 -184 -226 -9 -13 51 12 165 69
281 138 425 175 477 123 20 -20 22 -31 22 -129 0 -70 -7 -129 -18 -172 -31
-115 -108 -352 -153 -469 -24 -63 -42 -117 -40 -119 4 -4 55 55 194 226 182
224 548 592 588 592 8 0 10 -10 4 -32 -15 -67 -115 -350 -190 -538 -86 -217
-121 -321 -150 -449 -17 -79 -20 -119 -4 -75 4 10 25 50 46 87 74 128 127 168
148 111 13 -32 13 -195 0 -344 -20 -234 -29 -436 -21 -475 9 -46 10 -44 36 85
29 142 85 230 146 230 37 0 90 -30 120 -68 167 -213 499 -461 778 -582 306
-133 537 -183 851 -184 316 0 544 50 799 179 309 155 526 364 695 668 33 58
41 67 60 61 59 -17 118 -57 198 -133 48 -46 88 -77 88 -70 0 37 -108 188 -194
274 l-51 50 -1 130 c-1 192 -36 311 -135 456 -100 148 -199 223 -499 377 -213
110 -217 112 -515 200 -165 49 -368 109 -452 133 -113 32 -149 47 -142 55 19
23 136 63 230 79 123 22 392 22 512 0 155 -27 470 -167 656 -290 46 -30 122
-86 170 -124 103 -82 163 -114 214 -114 74 0 117 80 117 218 0 222 -98 360
-534 754 -113 102 -250 200 -263 188 -2 -3 19 -42 47 -87 29 -44 50 -83 48
-86 -3 -2 -95 27 -204 67 -277 99 -437 154 -521 179 -40 12 -73 25 -73 29 0
26 52 79 100 103 68 34 161 46 415 54 301 10 471 -12 743 -95 150 -47 343 -95
417 -105 l50 -6 -52 49 c-156 147 -391 309 -597 411 -207 102 -563 256 -706
305 -140 49 -307 86 -485 110 -117 15 -454 27 -565 19z m1862 -1620 c27 -30
40 -74 27 -90 -9 -11 -16 -11 -39 1 -40 21 -90 73 -90 95 0 45 59 41 102 -6z
m-1636 -169 c261 -45 582 -156 844 -291 246 -126 443 -309 534 -496 40 -81 58
-168 35 -168 -23 0 -117 51 -238 129 -63 41 -189 112 -280 159 -182 93 -221
122 -221 162 0 27 35 67 80 90 l25 13 -45 20 c-64 27 -174 32 -325 13 -262
-32 -330 -12 -280 84 20 39 13 50 -16 24 -35 -31 -252 -282 -280 -325 l-26
-38 -67 52 c-36 30 -105 75 -153 102 -103 56 -153 100 -153 132 0 23 73 120
122 161 57 48 209 162 236 176 35 20 98 20 208 1z m-596 -511 c140 -42 441
-217 745 -434 84 -61 204 -130 223 -130 20 0 14 27 -13 58 -36 42 -33 77 8 99
27 15 57 18 202 17 184 0 325 -23 507 -80 94 -30 288 -122 295 -140 15 -39
-101 -162 -267 -286 -114 -85 -321 -193 -432 -227 -241 -73 -507 -69 -732 10
-204 72 -474 268 -575 418 -69 102 -111 238 -111 360 0 112 57 351 84 351 7 0
37 -7 66 -16z"/>
</g>
</svg>
